<?xml version="1.0" encoding="UTF-8" standalone="no"?>
<svg
   id="svg1"
   width="100"
   height="100"
   version="1.1"
   sodipodi:docname="logo.svg"
   inkscape:version="1.4.2 (ebf0e940, 2025-05-08)"
   xmlns:inkscape="http://www.inkscape.org/namespaces/inkscape"
   xmlns:sodipodi="http://sodipodi.sourceforge.net/DTD/sodipodi-0.dtd"
   xmlns="http://www.w3.org/2000/svg"
   xmlns:svg="http://www.w3.org/2000/svg">
  <defs
     id="defs1" />
  <sodipodi:namedview
     id="namedview1"
     pagecolor="#505050"
     bordercolor="#eeeeee"
     borderopacity="1"
     inkscape:showpageshadow="0"
     inkscape:pageopacity="0"
     inkscape:pagecheckerboard="0"
     inkscape:deskcolor="#505050"
     inkscape:zoom="4.2826089"
     inkscape:cx="40.62944"
     inkscape:cy="65.263957"
     inkscape:window-width="1472"
     inkscape:window-height="826"
     inkscape:window-x="0"
     inkscape:window-y="37"
     inkscape:window-maximized="1"
     inkscape:current-layer="layer1" />
  <g
     id="layer1">
    <path
       id="rect1"
       d="M0 0h100v100H0z"
       style="display:inline;fill:#f9f9f9;fill-opacity:.00618238;stroke:none;stroke-width:4;paint-order:stroke fill markers" />
    <g
       id="g11">
      <path
         id="path2"
         d="m60.773 10.105-2 15.958v65.832h32.093v-4H62.772V26.064Z"
         style="fill:#000;fill-opacity:.998454;fill-rule:nonzero;stroke:none;stroke-width:3.99874;stroke-dasharray:none;stroke-opacity:1;paint-order:stroke fill markers" />
      <path
         id="path3"
         d="M70.773 10.105c-.333 2.332-1.557 7.724-2 13.994-.874 12.39 0 37.318 0 55.978v1.999H90.866v-3.999H72.775c.057-18.404.84-42.025-.003-53.978-.442-6.27-1.666-11.662-2-13.994z"
         style="fill:#000;fill-opacity:.998454;fill-rule:nonzero;stroke:none;stroke-width:3.99874;stroke-dasharray:none;stroke-opacity:1;paint-order:stroke fill markers" />
    </g>
    <path
       id="path6"
       d="M50 10.105c-.333 2.66-1.633 10.089-2 15.958-.446 7.16 0 15.958 0 23.937v41.895h4V50c0-7.979.446-16.777 0-23.937-.367-5.87-1.667-13.298-2-15.958Z"
       style="fill:#f9f9f9" />
    <path
       id="path4"
       d="M50 10.105c-.333 2.66-1.633 10.089-2 15.958-.446 7.16 0 15.958 0 23.937v41.895h4V50c0-7.979.446-16.777 0-23.937-.367-5.87-1.667-13.298-2-15.958Z"
       style="fill:#785bd1;fill-opacity:1;fill-rule:nonzero;stroke:none;stroke-width:3.99874;stroke-dasharray:none;stroke-opacity:1;paint-order:stroke fill markers" />
    <path
       id="center-h-stripe-bkup"
       d="M45.03 89.895h9.94"
       style="fill:none;fill-opacity:.998454;fill-rule:nonzero;stroke:#000;stroke-width:3.99874;stroke-dasharray:none;stroke-opacity:1;paint-order:stroke fill markers" />
    <path
       id="path11"
       d="M45.03 89.895h9.94"
       style="fill:none;fill-opacity:0.998454;fill-rule:nonzero;stroke:#785bd1;stroke-width:3.99874;stroke-dasharray:none;stroke-opacity:1;paint-order:stroke fill markers" />
    <g
       id="g13">
      <path
         id="path12"
         d="m60.773 10.105-2 15.958v65.832h32.093v-4H62.772V26.064Z"
         style="fill:#785bd1;fill-opacity:1;fill-rule:nonzero;stroke:none;stroke-width:3.99874;stroke-dasharray:none;stroke-opacity:1;paint-order:stroke fill markers" />
      <path
         id="path13"
         d="M70.773 10.105c-.333 2.332-1.557 7.724-2 13.994-.874 12.39 0 37.318 0 55.978v1.999H90.866v-3.999H72.775c.057-18.404.84-42.025-.003-53.978-.442-6.27-1.666-11.662-2-13.994z"
         style="fill:#785bd1;fill-opacity:1;fill-rule:nonzero;stroke:none;stroke-width:3.99874;stroke-dasharray:none;stroke-opacity:1;paint-order:stroke fill markers" />
    </g>
    <g
       id="g17"
       transform="matrix(-1 0 0 1 100 0)">
      <path
         id="path16"
         d="m60.773 10.105-2 15.958v65.832h32.093v-4H62.772V26.064Z"
         style="fill:#785bd1;fill-opacity:0.99845397;fill-rule:nonzero;stroke:none;stroke-width:3.99874;stroke-dasharray:none;stroke-opacity:1;paint-order:stroke fill markers" />
      <path
         id="path17"
         d="M70.773 10.105c-.333 2.332-1.557 7.724-2 13.994-.874 12.39 0 37.318 0 55.978v1.999H90.866v-3.999H72.775c.057-18.404.84-42.025-.003-53.978-.442-6.27-1.666-11.662-2-13.994z"
         style="fill:#785bd1;fill-opacity:1;fill-rule:nonzero;stroke:none;stroke-width:3.99874;stroke-dasharray:none;stroke-opacity:1;paint-order:stroke fill markers" />
    </g>
  </g>
</svg>
